<svg xmlns="http://www.w3.org/2000/svg" width="174" height="168" style="background:#ffffff">
<text x="10" y="22" font-size="13" font-family="monospace" font-weight="bold">dec formula (compact)</text>
<rect x="10.00" y="32.00" width="14.00" height="126.00" fill="#8d0801" stroke="#222222" stroke-width="0.5"/>
<text x="17.0" y="99.0" font-size="11" fill="#ffffff" text-anchor="middle" font-family="monospace">8</text>
<rect x="24.00" y="32.00" width="70.00" height="14.00" fill="#0f3460" stroke="#222222" stroke-width="0.5"/>
<text x="59.0" y="43.0" font-size="11" fill="#ffffff" text-anchor="middle" font-family="monospace">1</text>
<rect x="94.00" y="32.00" width="70.00" height="14.00" fill="#16213e" stroke="#222222" stroke-width="0.5"/>
<text x="129.0" y="43.0" font-size="11" fill="#ffffff" text-anchor="middle" font-family="monospace">0</text>
<rect x="24.00" y="46.00" width="14.00" height="112.00" fill="#8d0801" stroke="#222222" stroke-width="0.5"/>
<text x="31.0" y="106.0" font-size="11" fill="#ffffff" text-anchor="middle" font-family="monospace">8</text>
<rect x="38.00" y="46.00" width="14.00" height="84.00" fill="#0f3460" stroke="#222222" stroke-width="0.5"/>
<text x="45.0" y="92.0" font-size="11" fill="#ffffff" text-anchor="middle" font-family="monospace">1</text>
<rect x="52.00" y="46.00" width="112.00" height="14.00" fill="#c65f00" stroke="#222222" stroke-width="0.5"/>
<text x="108.0" y="57.0" font-size="11" fill="#ffffff" text-anchor="middle" font-family="monospace">6</text>
<rect x="52.00" y="60.00" width="42.00" height="23.33" fill="#1a936f" stroke="#222222" stroke-width="0.5"/>
<text x="73.0" y="75.7" font-size="11" fill="#ffffff" text-anchor="middle" font-family="monospace">5</text>
<rect x="52.00" y="83.33" width="14.00" height="23.33" fill="#16213e" stroke="#222222" stroke-width="0.5"/>
<text x="59.0" y="99.0" font-size="11" fill="#ffffff" text-anchor="middle" font-family="monospace">0</text>
<rect x="52.00" y="106.67" width="14.00" height="23.33" fill="#3d5a80" stroke="#222222" stroke-width="0.5"/>
<text x="59.0" y="122.3" font-size="11" fill="#ffffff" text-anchor="middle" font-family="monospace">7</text>
<rect x="66.00" y="83.33" width="28.00" height="23.33" fill="#f5f5f5" stroke="#222222" stroke-width="0.5"/>
<text x="80.0" y="99.0" font-size="11" fill="#ffffff" text-anchor="middle" font-family="monospace">4</text>
<rect x="66.00" y="106.67" width="14.00" height="23.33" fill="#16213e" stroke="#222222" stroke-width="0.5"/>
<text x="73.0" y="122.3" font-size="11" fill="#ffffff" text-anchor="middle" font-family="monospace">0</text>
<rect x="80.00" y="106.67" width="14.00" height="23.33" fill="#c65f00" stroke="#222222" stroke-width="0.5"/>
<text x="87.0" y="122.3" font-size="11" fill="#ffffff" text-anchor="middle" font-family="monospace">6</text>
<rect x="94.00" y="60.00" width="35.00" height="14.00" fill="#16213e" stroke="#222222" stroke-width="0.5"/>
<text x="111.5" y="71.0" font-size="11" fill="#ffffff" text-anchor="middle" font-family="monospace">0</text>
<rect x="129.00" y="60.00" width="35.00" height="14.00" fill="#c65f00" stroke="#222222" stroke-width="0.5"/>
<text x="146.5" y="71.0" font-size="11" fill="#ffffff" text-anchor="middle" font-family="monospace">6</text>
<rect x="94.00" y="74.00" width="14.00" height="56.00" fill="#5f0f40" stroke="#222222" stroke-width="0.5"/>
<text x="101.0" y="106.0" font-size="11" fill="#ffffff" text-anchor="middle" font-family="monospace">9</text>
<rect x="108.00" y="74.00" width="56.00" height="14.00" fill="#533483" stroke="#222222" stroke-width="0.5"/>
<text x="136.0" y="85.0" font-size="11" fill="#ffffff" text-anchor="middle" font-family="monospace">2</text>
<rect x="108.00" y="88.00" width="14.00" height="42.00" fill="#0b6e4f" stroke="#222222" stroke-width="0.5"/>
<text x="115.0" y="113.0" font-size="11" fill="#ffffff" text-anchor="middle" font-family="monospace">10</text>
<rect x="122.00" y="88.00" width="14.00" height="28.00" fill="#c65f00" stroke="#222222" stroke-width="0.5"/>
<text x="129.0" y="106.0" font-size="11" fill="#ffffff" text-anchor="middle" font-family="monospace">6</text>
<rect x="136.00" y="88.00" width="28.00" height="14.00" fill="#f5f5f5" stroke="#222222" stroke-width="0.5"/>
<text x="150.0" y="99.0" font-size="11" fill="#ffffff" text-anchor="middle" font-family="monospace">4</text>
<rect x="136.00" y="102.00" width="14.00" height="14.00" fill="#16213e" stroke="#222222" stroke-width="0.5"/>
<text x="143.0" y="113.0" font-size="11" fill="#ffffff" text-anchor="middle" font-family="monospace">0</text>
<rect x="150.00" y="102.00" width="14.00" height="14.00" fill="#c65f00" stroke="#222222" stroke-width="0.5"/>
<text x="157.0" y="113.0" font-size="11" fill="#ffffff" text-anchor="middle" font-family="monospace">6</text>
<rect x="122.00" y="116.00" width="21.00" height="14.00" fill="#16213e" stroke="#222222" stroke-width="0.5"/>
<text x="132.5" y="127.0" font-size="11" fill="#ffffff" text-anchor="middle" font-family="monospace">0</text>
<rect x="143.00" y="116.00" width="21.00" height="14.00" fill="#0f3460" stroke="#222222" stroke-width="0.5"/>
<text x="153.5" y="127.0" font-size="11" fill="#ffffff" text-anchor="middle" font-family="monospace">1</text>
<rect x="38.00" y="130.00" width="42.00" height="28.00" fill="#5f0f40" stroke="#222222" stroke-width="0.5"/>
<text x="59.0" y="148.0" font-size="11" fill="#ffffff" text-anchor="middle" font-family="monospace">9</text>
<text x="41.0" y="141.0" font-size="8" fill="#aaaaaa" font-family="monospace">/62</text>
<rect x="80.00" y="130.00" width="84.00" height="14.00" fill="#533483" stroke="#222222" stroke-width="0.5"/>
<text x="122.0" y="141.0" font-size="11" fill="#ffffff" text-anchor="middle" font-family="monospace">2</text>
<rect x="80.00" y="144.00" width="42.00" height="14.00" fill="#16213e" stroke="#222222" stroke-width="0.5"/>
<text x="101.0" y="155.0" font-size="11" fill="#ffffff" text-anchor="middle" font-family="monospace">0</text>
<rect x="122.00" y="144.00" width="42.00" height="14.00" fill="#0f3460" stroke="#222222" stroke-width="0.5"/>
<text x="143.0" y="155.0" font-size="11" fill="#ffffff" text-anchor="middle" font-family="monospace">1</text>
</svg>