<svg xmlns="http://www.w3.org/2000/svg" width="174" height="146" style="background:#ffffff">
<rect x="10.00" y="10.00" width="14.00" height="126.00" fill="#179FB5" stroke="#222222" stroke-width="0.5"/>
<text x="17.0" y="77.0" font-size="11" fill="#ffffff" text-anchor="middle" font-family="monospace">8</text>
<rect x="24.00" y="10.00" width="70.00" height="14.00" fill="#BB0F3D" stroke="#222222" stroke-width="0.5"/>
<text x="59.0" y="21.0" font-size="11" fill="#ffffff" text-anchor="middle" font-family="monospace">1</text>
<rect x="94.00" y="10.00" width="70.00" height="14.00" fill="#76003B" stroke="#222222" stroke-width="0.5"/>
<text x="129.0" y="21.0" font-size="11" fill="#ffffff" text-anchor="middle" font-family="monospace">0</text>
<rect x="24.00" y="24.00" width="14.00" height="112.00" fill="#179FB5" stroke="#222222" stroke-width="0.5"/>
<text x="31.0" y="84.0" font-size="11" fill="#ffffff" text-anchor="middle" font-family="monospace">8</text>
<rect x="38.00" y="24.00" width="14.00" height="84.00" fill="#BB0F3D" stroke="#222222" stroke-width="0.5"/>
<text x="45.0" y="70.0" font-size="11" fill="#ffffff" text-anchor="middle" font-family="monospace">1</text>
<rect x="52.00" y="24.00" width="112.00" height="14.00" fill="#004A40" stroke="#222222" stroke-width="0.5"/>
<text x="108.0" y="35.0" font-size="11" fill="#ffffff" text-anchor="middle" font-family="monospace">6</text>
<rect x="52.00" y="38.00" width="42.00" height="23.33" fill="#7F9B19" stroke="#222222" stroke-width="0.5"/>
<text x="73.0" y="53.7" font-size="11" fill="#ffffff" text-anchor="middle" font-family="monospace">5</text>
<rect x="52.00" y="61.33" width="14.00" height="23.33" fill="#BB0F3D" stroke="#222222" stroke-width="0.5"/>
<text x="59.0" y="77.0" font-size="11" fill="#ffffff" text-anchor="middle" font-family="monospace">1</text>
<rect x="52.00" y="84.67" width="14.00" height="23.33" fill="#68b0b0" stroke="#222222" stroke-width="0.5"/>
<text x="59.0" y="100.3" font-size="11" fill="#ffffff" text-anchor="middle" font-family="monospace">43</text>
<rect x="66.00" y="61.33" width="28.00" height="23.33" fill="#6E6806" stroke="#222222" stroke-width="0.5"/>
<text x="80.0" y="77.0" font-size="11" fill="#ffffff" text-anchor="middle" font-family="monospace">4</text>
<rect x="66.00" y="84.67" width="14.00" height="23.33" fill="#76003B" stroke="#222222" stroke-width="0.5"/>
<text x="73.0" y="100.3" font-size="11" fill="#ffffff" text-anchor="middle" font-family="monospace">0</text>
<rect x="80.00" y="84.67" width="14.00" height="23.33" fill="#004A40" stroke="#222222" stroke-width="0.5"/>
<text x="87.0" y="100.3" font-size="11" fill="#ffffff" text-anchor="middle" font-family="monospace">6</text>
<rect x="94.00" y="38.00" width="35.00" height="14.00" fill="#76003B" stroke="#222222" stroke-width="0.5"/>
<text x="111.5" y="49.0" font-size="11" fill="#ffffff" text-anchor="middle" font-family="monospace">0</text>
<rect x="129.00" y="38.00" width="35.00" height="14.00" fill="#004A40" stroke="#222222" stroke-width="0.5"/>
<text x="146.5" y="49.0" font-size="11" fill="#ffffff" text-anchor="middle" font-family="monospace">6</text>
<rect x="94.00" y="52.00" width="14.00" height="56.00" fill="#2000B9" stroke="#222222" stroke-width="0.5"/>
<text x="101.0" y="84.0" font-size="11" fill="#ffffff" text-anchor="middle" font-family="monospace">9</text>
<rect x="108.00" y="52.00" width="56.00" height="14.00" fill="#EF4F34" stroke="#222222" stroke-width="0.5"/>
<text x="136.0" y="63.0" font-size="11" fill="#ffffff" text-anchor="middle" font-family="monospace">2</text>
<rect x="108.00" y="66.00" width="14.00" height="42.00" fill="#6627F2" stroke="#222222" stroke-width="0.5"/>
<text x="115.0" y="91.0" font-size="11" fill="#ffffff" text-anchor="middle" font-family="monospace">10</text>
<rect x="122.00" y="66.00" width="14.00" height="28.00" fill="#004A40" stroke="#222222" stroke-width="0.5"/>
<text x="129.0" y="84.0" font-size="11" fill="#ffffff" text-anchor="middle" font-family="monospace">6</text>
<rect x="136.00" y="66.00" width="28.00" height="14.00" fill="#6E6806" stroke="#222222" stroke-width="0.5"/>
<text x="150.0" y="77.0" font-size="11" fill="#ffffff" text-anchor="middle" font-family="monospace">4</text>
<rect x="136.00" y="80.00" width="14.00" height="14.00" fill="#76003B" stroke="#222222" stroke-width="0.5"/>
<text x="143.0" y="91.0" font-size="11" fill="#ffffff" text-anchor="middle" font-family="monospace">0</text>
<rect x="150.00" y="80.00" width="14.00" height="14.00" fill="#004A40" stroke="#222222" stroke-width="0.5"/>
<text x="157.0" y="91.0" font-size="11" fill="#ffffff" text-anchor="middle" font-family="monospace">6</text>
<rect x="122.00" y="94.00" width="21.00" height="14.00" fill="#76003B" stroke="#222222" stroke-width="0.5"/>
<text x="132.5" y="105.0" font-size="11" fill="#ffffff" text-anchor="middle" font-family="monospace">0</text>
<rect x="143.00" y="94.00" width="21.00" height="14.00" fill="#BB0F3D" stroke="#222222" stroke-width="0.5"/>
<text x="153.5" y="105.0" font-size="11" fill="#ffffff" text-anchor="middle" font-family="monospace">1</text>
<rect x="38.00" y="108.00" width="42.00" height="28.00" fill="#2000B9" stroke="#222222" stroke-width="0.5"/>
<text x="59.0" y="126.0" font-size="11" fill="#ffffff" text-anchor="middle" font-family="monospace">9</text>
<rect x="80.00" y="108.00" width="84.00" height="14.00" fill="#EF4F34" stroke="#222222" stroke-width="0.5"/>
<text x="122.0" y="119.0" font-size="11" fill="#ffffff" text-anchor="middle" font-family="monospace">2</text>
<rect x="80.00" y="122.00" width="42.00" height="14.00" fill="#76003B" stroke="#222222" stroke-width="0.5"/>
<text x="101.0" y="133.0" font-size="11" fill="#ffffff" text-anchor="middle" font-family="monospace">0</text>
<rect x="122.00" y="122.00" width="42.00" height="14.00" fill="#BB0F3D" stroke="#222222" stroke-width="0.5"/>
<text x="143.0" y="133.0" font-size="11" fill="#ffffff" text-anchor="middle" font-family="monospace">1</text>
</svg>